<svg width="89" height="39" viewBox="0 0 89 39" fill="none" xmlns="http://www.w3.org/2000/svg">
<circle cx="69.3834" cy="19.1056" r="19.1056" fill="#5454D4"/>
<path d="M66.6615 25.85C66.2688 25.4573 66.2688 24.8206 66.6615 24.4279L71.9838 19.1056L66.6615 13.7833C66.2688 13.3907 66.2688 12.754 66.6615 12.3613C67.0542 11.9686 67.6908 11.9686 68.0835 12.3613L74.1169 18.3946C74.5096 18.7873 74.5096 19.424 74.1169 19.8167L68.0835 25.85C67.6908 26.2427 67.0542 26.2427 66.6615 25.85Z" fill="white"/>
<circle cx="19.1056" cy="19.1056" r="19.1056" transform="matrix(-1 0 0 1 38.2109 0)" fill="white" fill-opacity="0.2"/>
<path d="M21.8251 25.4566C22.1687 25.113 22.1687 24.556 21.8251 24.2125L17.1689 19.5563L21.8251 14.9001C22.1687 14.5566 22.1687 13.9996 21.8251 13.6561C21.4816 13.3125 20.9246 13.3125 20.581 13.6561L15.3028 18.9343C14.9593 19.2778 14.9593 19.8348 15.3028 20.1784L20.581 25.4566C20.9246 25.8001 21.4816 25.8001 21.8251 25.4566Z" fill="white"/>
</svg>
